<?xml version="1.0" encoding="utf-8"?>
<!-- Generator: Adobe Illustrator 16.0.0, SVG Export Plug-In . SVG Version: 6.00 Build 0)  -->
<!DOCTYPE svg PUBLIC "-//W3C//DTD SVG 1.1//EN" "http://www.w3.org/Graphics/SVG/1.1/DTD/svg11.dtd">
<svg version="1.1" id="Layer_1" xmlns="http://www.w3.org/2000/svg" xmlns:xlink="http://www.w3.org/1999/xlink" x="0px" y="0px"
	 width="80px" height="80px" viewBox="0 0 80 80" enable-background="new 0 0 80 80" xml:space="preserve">
<g>
	<polygon fill="#666666" points="37.83,18.612 46.087,14.221 46.133,14.312 73.444,65.756 62.877,65.756 46.133,34.235 	"/>
	<polygon fill="#666666" points="34.512,49.494 34.512,65.771 32.655,65.771 32.637,65.754 25.172,51.697 15.904,34.255 
		7.602,18.633 15.85,14.227 15.904,14.318 25.172,31.797 	"/>
	<path fill="#FFFFFF" d="M46.131,14.222V65.76H36.79V18.729c0-2.213,1.557-4.057,3.646-4.507H46.131z"/>
	<polygon fill="#FFFFFF" points="34.512,49.494 34.512,65.771 32.655,65.771 32.637,65.754 25.172,65.754 25.172,31.797 	"/>
	<path fill="#FFFFFF" d="M15.896,14.222v51.558H6.555V18.729c0-2.213,1.557-4.057,3.646-4.507H15.896z"/>
	<path fill="#FFFFFF" d="M65.509,50.826l-3.852,6.453c0,0.02,0,0.041-0.02,0.061l-0.738,1.209c-0.859,0.983-2.109,1.619-3.523,1.619
		H39.228v-9.342H65.509z"/>
</g>
</svg>
