<?xml version="1.0" encoding="utf-8"?>
<!-- Generator: Adobe Illustrator 16.0.0, SVG Export Plug-In . SVG Version: 6.00 Build 0)  -->
<!DOCTYPE svg PUBLIC "-//W3C//DTD SVG 1.1//EN" "http://www.w3.org/Graphics/SVG/1.1/DTD/svg11.dtd">
<svg version="1.1" id="Layer_1" xmlns="http://www.w3.org/2000/svg" xmlns:xlink="http://www.w3.org/1999/xlink" x="0px" y="0px"
	 width="247px" height="35px" viewBox="0 0 247 35" enable-background="new 0 0 247 35" xml:space="preserve">
<g>
	<path fill="#F2F2F2" d="M24.918,9.28l-4.583,13.099h-0.753l-2.686-9.869l-2.682,9.869l-0.754,0L8.88,9.28l0.839,0l4.07,11.625
		l2.826-10.401h0.561l2.83,10.401L24.072,9.28L24.918,9.28z"/>
	<path fill="#F2F2F2" d="M28.438,20.931c-0.52-0.635-0.876-1.416-1.043-2.266c0,0-0.108-0.426-0.108-1.123
		c0-1.277,0.412-2.481,1.159-3.39c0.37-0.45,0.803-0.804,1.287-1.053c0.503-0.259,1.039-0.393,1.591-0.393
		c0.955,0,1.678,0.242,2.227,0.693c0.524,0.431,0.812,1.018,0.812,1.653c0,0.664-0.33,1.304-0.905,1.757
		c-0.621,0.488-1.493,0.746-2.522,0.746h-2.285c-0.018,0-0.201,0-0.306,0.099c-0.255,0.241-0.172,0.598-0.172,0.598
		c0.27,1.868,1.586,3.29,3.165,3.29c1.013,0,1.798-0.334,2.27-0.968l0.25-0.335l0.67,0.5l-0.25,0.335
		c-0.444,0.595-1.314,1.304-2.94,1.304C30.232,22.378,29.202,21.865,28.438,20.931z M28.18,16.794
		c0.219-0.08,0.485-0.076,0.485-0.076h2.271c0.84,0,1.533-0.196,2.005-0.567c0.377-0.297,0.586-0.688,0.586-1.099
		c0-0.727-0.687-1.508-2.193-1.51C29.769,13.544,28.461,14.946,28.18,16.794z"/>
	<path fill="#F2F2F2" d="M38.812,22.378V9.28h0.836v3.045c0,0-0.011,0.227,0.131,0.378c0.109,0.115,0.298,0.174,0.561,0.174
		l0.678-0.001c1.271,0,2.464,0.494,3.361,1.392s1.392,2.091,1.392,3.36c0,1.27-0.494,2.463-1.392,3.36s-2.091,1.392-3.36,1.392
		H38.812z M41.02,21.542c2.159,0,3.916-1.756,3.916-3.916c0-2.159-1.757-3.916-3.916-3.916l-0.677,0.002
		c-0.262,0-0.493-0.04-0.694-0.118v7.948H41.02z"/>
	<path fill="#F2F2F2" d="M64.005,21.129c-0.89,0.822-2.025,1.25-3.336,1.25c-0.99,0-1.858-0.261-2.509-0.753
		c-0.628-0.476-1.026-1.135-1.15-1.907c-0.16-0.99,0.153-2.049,0.881-2.981c0.482-0.617,1.128-1.158,1.911-1.603
		c-0.115-0.25-0.221-0.496-0.316-0.737c-0.51-1.288-0.705-2.364-0.578-3.201c0.091-0.6,0.346-1.07,0.757-1.397
		c0.428-0.339,1.015-0.512,1.746-0.512c0.782,0,1.462,0.219,1.966,0.634c0.47,0.387,0.771,0.922,0.872,1.546
		c0.117,0.727-0.05,1.495-0.472,2.164c-0.457,0.723-1.161,1.259-2.037,1.549c-0.292,0.097-0.572,0.205-0.837,0.322
		c0.339,0.649,0.743,1.326,1.205,2.011c0.604,0.895,1.247,1.713,1.877,2.404c0.025-0.034,0.05-0.068,0.074-0.104
		c0.814-1.165,1.245-2.875,1.245-4.948h0.826c0,1.115-0.118,2.142-0.35,3.05c-0.234,0.918-0.585,1.715-1.043,2.371
		c-0.056,0.08-0.113,0.157-0.172,0.233c0.815,0.802,1.58,1.354,2.173,1.538l-0.244,0.789C65.61,22.574,64.659,21.77,64.005,21.129z
		 M58.542,17.245c-0.585,0.75-0.84,1.582-0.717,2.342c0.196,1.213,1.286,1.966,2.844,1.966c1.102,0,2.027-0.341,2.763-1.017
		c-0.69-0.749-1.376-1.621-2.009-2.56c-0.474-0.703-0.897-1.411-1.256-2.1C59.498,16.262,58.948,16.724,58.542,17.245z
		 M59.723,11.32c-0.125,0.827,0.174,2.047,0.814,3.442c0.299-0.134,0.613-0.256,0.942-0.365c1.499-0.497,2.117-1.783,1.954-2.798
		c-0.15-0.931-0.906-1.487-2.023-1.487C60.062,10.113,59.801,10.802,59.723,11.32z"/>
	<path fill="#F2F2F2" d="M81.075,21.847c-0.633-0.336-1.201-0.814-1.686-1.422c-0.983-1.232-1.524-2.864-1.524-4.596
		s0.542-3.364,1.524-4.596c0.485-0.608,1.053-1.086,1.686-1.422c0.664-0.352,1.371-0.53,2.101-0.53c0.879,0,1.75,0.27,2.519,0.779
		c0.732,0.486,1.37,1.189,1.845,2.032l-0.73,0.411c-0.841-1.494-2.2-2.385-3.634-2.385c-2.467,0-4.473,2.562-4.473,5.711
		s2.006,5.711,4.473,5.711c1.927,0,4.152-2.252,4.347-5.227c0,0-3.366,0.005-3.37,0.005c-0.454,0-0.822,0.13-1.092,0.388
		c-0.183,0.174-0.254,0.345-0.255,0.347l-0.785-0.292c0.013-0.035,0.137-0.352,0.462-0.661c0.282-0.269,0.776-0.587,1.551-0.617
		c0.014-0.001,3.92-0.008,3.92-0.008h0.001c0.111,0,0.217,0.044,0.296,0.123s0.123,0.185,0.123,0.296
		c0,0.847-0.149,1.684-0.443,2.486c-0.277,0.756-0.668,1.446-1.163,2.051c-1.012,1.237-2.321,1.946-3.591,1.946
		C82.445,22.377,81.739,22.199,81.075,21.847z"/>
	<path fill="#F2F2F2" d="M92.713,22.378v-5.986c0-0.979,0.354-1.901,0.998-2.596c0.652-0.704,1.521-1.092,2.447-1.092v0.836
		c-1.438,0-2.609,1.279-2.609,2.852v5.986H92.713z"/>
	<path fill="#F2F2F2" d="M100.676,21.583c-0.675-0.537-1.047-1.258-1.047-2.033s0.372-1.497,1.047-2.033
		c0.647-0.514,1.502-0.797,2.407-0.797l2.027-0.001c0,0,0.263,0.013,0.415-0.13c0.107-0.101,0.166-0.271,0.174-0.504v-0.549
		c0-1.098-1.108-1.992-2.471-1.992c-0.874,0-1.667,0.363-2.12,0.971l-0.251,0.336l-0.672-0.501l0.251-0.336
		c0.61-0.819,1.654-1.308,2.792-1.308c0.87,0,1.691,0.286,2.312,0.804c0.643,0.536,0.997,1.256,0.997,2.026v4.015
		c0,0.774-0.372,1.496-1.047,2.033c-0.647,0.514-1.502,0.797-2.407,0.797C102.178,22.379,101.323,22.097,100.676,21.583z
		 M103.083,17.558c-0.717,0-1.386,0.219-1.886,0.615c-0.471,0.374-0.73,0.863-0.73,1.376c0,0.513,0.26,1.002,0.73,1.376
		c0.5,0.396,1.169,0.615,1.886,0.615c0.716,0,1.386-0.218,1.885-0.615c0.471-0.375,0.73-0.863,0.73-1.376v-2.096
		c-0.271,0.109-0.519,0.107-0.601,0.103L103.083,17.558z"/>
	<path fill="#F2F2F2" d="M118.097,17.374c0,1.269-0.495,2.462-1.392,3.36c-0.897,0.898-2.091,1.392-3.361,1.392l-0.677-0.002
		c-0.264,0-0.452,0.059-0.562,0.174c-0.143,0.151-0.131,0.377-0.131,0.377v3.045h-0.836V12.622h2.207
		c1.269,0,2.462,0.494,3.36,1.392S118.097,16.104,118.097,17.374z M112.667,21.288l0.678,0.002c2.159,0,3.916-1.757,3.916-3.916
		s-1.757-3.916-3.916-3.916h-1.371v7.948C112.174,21.327,112.406,21.288,112.667,21.288z"/>
	<path fill="#F2F2F2" d="M129.68,16.523v5.855h-0.835v-5.855c0-1.571-1.169-2.849-2.606-2.849l-2.008,0.002
		c-0.079,0.003-0.326,0.004-0.599-0.107v8.809h-0.835V9.28h0.835v2.862c0,0.267,0.061,0.459,0.181,0.569
		c0.148,0.137,0.373,0.131,0.373,0.131l2.053-0.003c0.926,0,1.794,0.387,2.445,1.091C129.326,14.624,129.68,15.545,129.68,16.523z"
		/>
	<path fill="#F2F2F2" d="M135.675,10.137v0.229c0,0.23-0.187,0.417-0.418,0.417c-0.23,0-0.417-0.187-0.417-0.417v-0.229
		c0-0.231,0.187-0.418,0.417-0.418C135.488,9.719,135.675,9.906,135.675,10.137z M134.84,12.705h0.835v9.674h-0.835V12.705z"/>
	<path fill="#F2F2F2" d="M143.212,21.988c-0.483-0.249-0.915-0.603-1.285-1.052c-0.747-0.908-1.157-2.15-1.157-3.386
		c0-1.236,0.41-2.491,1.157-3.399c0.37-0.45,0.802-0.804,1.285-1.052c0.505-0.26,1.071-0.394,1.595-0.394
		c1.217,0,2.175,0.489,2.781,1.303l0.25,0.335l-0.67,0.5l-0.249-0.335c-0.451-0.604-1.238-0.965-2.107-0.967
		c-1.769,0.003-3.207,1.753-3.207,4.009c0,2.256,1.438,3.993,3.207,3.996c0.869-0.001,1.656-0.362,2.107-0.967l0.249-0.335l0.67,0.5
		l-0.25,0.335c-0.606,0.813-1.606,1.303-2.781,1.303C144.244,22.381,143.717,22.247,143.212,21.988z"/>
	<path fill="#F2F2F2" d="M163.293,22.379l-3.85-0.021V9.279h3.852c0.725,0,1.427,0.178,2.087,0.529
		c0.629,0.334,1.192,0.811,1.674,1.417c0.976,1.227,1.514,2.852,1.514,4.576c0,0.87-0.136,1.717-0.403,2.518
		c-0.26,0.778-0.633,1.479-1.108,2.085c-0.482,0.613-1.045,1.097-1.674,1.437c-0.661,0.357-1.363,0.539-2.089,0.539H163.293z
		 M163.297,21.544c1.163,0,2.266-0.588,3.104-1.656c0.859-1.094,1.333-2.545,1.333-4.086c0-3.136-1.991-5.687-4.439-5.687h-3.017
		v11.414L163.297,21.544z"/>
	<path fill="#F2F2F2" d="M173.306,20.931c-0.521-0.635-0.876-1.416-1.043-2.266c0,0-0.108-0.426-0.108-1.123
		c0-1.277,0.412-2.481,1.16-3.39c0.369-0.45,0.803-0.804,1.286-1.053c0.503-0.259,1.039-0.393,1.592-0.393
		c0.954,0,1.678,0.242,2.227,0.693c0.524,0.431,0.812,1.018,0.812,1.653c0,0.664-0.33,1.304-0.905,1.757
		c-0.62,0.488-1.492,0.746-2.521,0.746h-2.285c-0.019,0-0.201,0-0.306,0.099c-0.255,0.241-0.172,0.598-0.172,0.598
		c0.27,1.868,1.586,3.29,3.164,3.29c1.013,0,1.798-0.334,2.271-0.968l0.25-0.335l0.67,0.5l-0.25,0.335
		c-0.443,0.595-1.314,1.304-2.94,1.304C175.1,22.378,174.07,21.865,173.306,20.931z M173.047,16.794
		c0.22-0.08,0.485-0.076,0.485-0.076h2.272c0.84,0,1.533-0.196,2.005-0.567c0.378-0.297,0.586-0.688,0.586-1.099
		c0-0.727-0.687-1.508-2.193-1.51C174.637,13.544,173.329,14.946,173.047,16.794z"/>
	<path fill="#F2F2F2" d="M184.468,22.028c-0.576-0.259-0.919-0.643-1.152-0.948l-0.254-0.331l0.661-0.508l0.254,0.331
		c0.393,0.511,0.882,0.97,2.547,0.97c1.518,0,2.461-0.74,2.461-1.931c0-0.516-0.21-0.872-0.681-1.155
		c-0.478-0.287-1.166-0.462-1.832-0.631c-0.73-0.186-1.486-0.378-2.075-0.733c-0.727-0.439-1.095-1.078-1.095-1.898
		c0-0.736,0.268-1.352,0.773-1.78c0.552-0.467,1.376-0.704,2.448-0.704c1.017,0,1.965,0.476,2.602,1.306l0.254,0.331l-0.661,0.508
		l-0.254-0.331c-0.478-0.623-1.185-0.979-1.94-0.979c-1.584,0-2.388,0.555-2.388,1.65c0,0.53,0.214,0.895,0.692,1.184
		c0.482,0.292,1.177,0.468,1.849,0.639c0.725,0.184,1.475,0.375,2.057,0.725c0.72,0.433,1.085,1.062,1.085,1.87
		c0,0.78-0.305,1.479-0.856,1.971c-0.585,0.52-1.429,0.794-2.438,0.794C185.648,22.376,184.995,22.266,184.468,22.028z"/>
	<path fill="#F2F2F2" d="M195.354,10.137v0.229c0,0.23-0.187,0.417-0.417,0.417c-0.231,0-0.418-0.187-0.418-0.417v-0.229
		c0-0.231,0.187-0.418,0.418-0.418C195.168,9.719,195.354,9.906,195.354,10.137z M194.52,12.705h0.835v9.674h-0.835V12.705z"/>
	<path fill="#F2F2F2" d="M206.935,12.657l-0.001,10.242c0,0.768-0.354,1.485-0.994,2.02c-0.619,0.516-1.437,0.8-2.304,0.8
		c-1.133,0-2.173-0.487-2.781-1.303l-0.25-0.335l0.67-0.5l0.249,0.335c0.452,0.605,1.241,0.967,2.112,0.967
		c1.357,0,2.462-0.89,2.462-1.984v-0.24c-0.005-0.078-0.029-0.222-0.129-0.328c-0.109-0.116-0.298-0.174-0.562-0.174l-0.677,0.002
		c-1.27,0-2.462-0.494-3.358-1.391c-0.897-0.897-1.392-2.089-1.392-3.358c0-1.268,0.494-2.461,1.392-3.357
		c0.896-0.897,2.089-1.391,3.357-1.391L206.935,12.657z M206.1,21.44v-7.945l-1.369,0.003c-2.159,0-3.914,1.755-3.914,3.913
		s1.755,3.913,3.913,3.913l0.677-0.002C205.668,21.322,205.899,21.362,206.1,21.44z"/>
	<path fill="#F2F2F2" d="M217.755,22.378V16.39c0-1.571-1.169-2.849-2.606-2.849s-2.606,1.278-2.606,2.849v5.989h-0.836V16.39
		c0-0.978,0.354-1.899,0.997-2.594c0.651-0.703,1.52-1.091,2.445-1.091s1.794,0.388,2.445,1.091
		c0.643,0.694,0.996,1.616,0.996,2.594v5.989H217.755z"/>
	<path fill="#F2F2F2" d="M224.166,20.931c-0.521-0.635-0.876-1.416-1.043-2.266c0,0-0.108-0.426-0.108-1.123
		c0-1.277,0.412-2.481,1.159-3.39c0.37-0.45,0.804-0.804,1.287-1.053c0.503-0.259,1.039-0.393,1.592-0.393
		c0.954,0,1.678,0.242,2.227,0.693c0.524,0.431,0.812,1.018,0.812,1.653c0,0.664-0.33,1.304-0.905,1.757
		c-0.62,0.488-1.492,0.746-2.521,0.746h-2.285c-0.019,0-0.201,0-0.306,0.099c-0.255,0.241-0.172,0.598-0.172,0.598
		c0.27,1.868,1.586,3.29,3.164,3.29c1.013,0,1.798-0.334,2.271-0.968l0.25-0.335l0.67,0.5l-0.25,0.335
		c-0.443,0.595-1.314,1.304-2.94,1.304C225.96,22.378,224.931,21.865,224.166,20.931z M223.907,16.794
		c0.22-0.08,0.485-0.076,0.485-0.076h2.272c0.84,0,1.533-0.196,2.005-0.567c0.378-0.297,0.586-0.688,0.586-1.099
		c0-0.727-0.687-1.508-2.193-1.51C225.496,13.544,224.189,14.946,223.907,16.794z"/>
	<path fill="#F2F2F2" d="M234.674,22.378v-5.986c0-0.979,0.354-1.901,0.998-2.596c0.652-0.704,1.521-1.092,2.448-1.092v0.836
		c-1.439,0-2.609,1.279-2.609,2.852v5.986H234.674z"/>
</g>
</svg>
