<?xml version="1.0" encoding="utf-8"?>
<!-- Generator: Adobe Illustrator 16.0.0, SVG Export Plug-In . SVG Version: 6.00 Build 0)  -->
<!DOCTYPE svg PUBLIC "-//W3C//DTD SVG 1.1//EN" "http://www.w3.org/Graphics/SVG/1.1/DTD/svg11.dtd">
<svg version="1.1" id="Layer_1" xmlns="http://www.w3.org/2000/svg" xmlns:xlink="http://www.w3.org/1999/xlink" x="0px" y="0px"
	 width="388px" height="56px" viewBox="0 0 388 56" enable-background="new 0 0 388 56" xml:space="preserve">
<g>
	<path fill="#FFFFFF" d="M27.604,42.661h-3.492L13.54,18.165v24.497h-1.286v-29h3.263l10.801,24.956V13.661h1.286V42.661z"/>
	<path fill="#FFFFFF" d="M45.118,26.208v16.454h-3.953V27.035l-5.698-13.375h3.952l4.918,11.582l6.204-11.628h1.333L45.118,26.208z"
		/>
	<path fill="#FFFFFF" d="M62.769,13.661v27.667h7.262v1.333H58.816v-29H62.769z"/>
	<path fill="#FFFFFF" d="M81.386,15.04v11.812h6.342v1.333h-6.342V41.42h7.215v1.287H77.433v-29h11.168v1.333H81.386z"/>
	<path fill="#FFFFFF" d="M112.641,13.752l-7.354,28.909h-3.677l-6.159-28.909h3.953l5.423,25.508l6.526-25.508H112.641z"/>
	<path fill="#FFFFFF" d="M123.443,15.04v11.812h6.343v1.333h-6.343V41.42h7.216v1.287h-11.168v-29h11.168v1.333H123.443z"/>
	<path fill="#FFFFFF" d="M166.099,35.354h-8.549l-1.838,7.262h-1.333l1.838-7.262h-1.838v-1.287h2.16l5.239-20.544h3.677
		l6.112,29.092h-3.952L166.099,35.354z M162.192,16.924l-4.32,17.143h7.951L162.192,16.924z"/>
	<path fill="#FFFFFF" d="M184.025,13.661v27.667h7.262v1.333h-11.214v-29H184.025z"/>
	<path fill="#FFFFFF" d="M202.642,15.04v11.812h6.343v1.333h-6.343V41.42h7.216v1.287h-11.168v-29h11.168v1.333H202.642z"/>
	<path fill="#FFFFFF" d="M225.395,13.293v22.52c0,3.769-3.079,6.848-6.848,6.848l0.046-1.333c1.562,0,2.85-1.287,2.85-2.849V13.293
		H225.395z"/>
	<path fill="#FFFFFF" d="M245.804,35.354h-8.549l-1.838,7.262h-1.333l1.838-7.262h-1.838v-1.287h2.16l5.239-20.544h3.677
		l6.112,29.092h-3.952L245.804,35.354z M241.897,16.924l-4.32,17.143h7.951L241.897,16.924z"/>
	<path fill="#FFFFFF" d="M274.209,42.661h-3.493l-10.57-24.497v24.497h-1.287v-29h3.263l10.801,24.956V13.661h1.287V42.661z"/>
	<path fill="#FFFFFF" d="M295.629,20.233v15.534c0,3.769-3.034,6.848-6.849,6.848h-6.802v-29.23h6.802
		C292.595,13.385,295.629,16.464,295.629,20.233z M291.584,38.663V17.567c0-1.609-1.241-2.85-2.85-2.85h-2.85v26.61h2.941
		C290.389,41.328,291.584,40.133,291.584,38.663z"/>
	<path fill="#FFFFFF" d="M318.015,42.661h-3.907l-4.044-9.008h-1.793v9.008h-3.952v-29h6.848c3.769,0,6.803,3.033,6.803,6.756v6.48
		c0,2.804-1.655,5.147-4.091,6.205L318.015,42.661z M314.062,29.562V17.751c0-1.562-1.379-2.803-2.941-2.803h-2.85v17.418h2.941
		C312.775,32.366,314.062,31.125,314.062,29.562z"/>
	<path fill="#FFFFFF" d="M330.149,13.431v29.23h-3.354v-29.23H330.149z"/>
	<path fill="#FFFFFF" d="M353.36,42.661h-3.493l-10.57-24.497v24.497h-1.287v-29h3.263l10.801,24.956V13.661h1.287V42.661z"/>
	<path fill="#FFFFFF" d="M375.746,20.279v15.534c0,3.769-3.08,6.848-6.849,6.848s-6.848-3.079-6.848-6.848V20.279
		c0-3.769,3.079-6.848,6.848-6.848S375.746,16.51,375.746,20.279z M371.701,17.567c0-1.562-1.287-2.85-2.85-2.85
		s-2.85,1.287-2.85,2.85v20.958c0,1.562,1.287,2.849,2.85,2.849s2.85-1.287,2.85-2.849V17.567z"/>
</g>
</svg>
